<svg xmlns="http://www.w3.org/2000/svg" viewBox="0 0 23 23" height="23" width="23"><title>butcher_15.svg</title><rect fill="none" x="0" y="0" width="23" height="23"></rect><rect x="1" y="1" rx="10.5" ry="10.5" width="21" height="21" stroke="#ffffff" style="stroke-linejoin:round;stroke-miterlimit:4;" fill="#ffffff" stroke-width="2"></rect><rect x="1" y="1" width="21" height="21" rx="10.5" ry="10.5" fill="#00b4f5"></rect><path fill="#fff" transform="translate(4 4)" d="M6.76.23a7.39,7.39,0,0,0-.8,0A4.91,4.91,0,0,0,2.75,1.68a3.71,3.71,0,0,0-.61,3.48c.12.54.25,1,.34,1.4a3.22,3.22,0,0,1,.1.74A14.52,14.52,0,0,1,1.44,9.14a4.77,4.77,0,0,0-1,2.65,2.69,2.69,0,0,0,1.41,2.27,6.22,6.22,0,0,0,3.62.54A13,13,0,0,0,11.32,12c1.93-1.46,3.57-3.43,3.28-5.62l0-.13A6.59,6.59,0,0,0,11.89,2,9.11,9.11,0,0,0,8.71.43,9.58,9.58,0,0,0,6.76.23Zm.07,1.34a7.22,7.22,0,0,1,1.61.14,8.36,8.36,0,0,1,2.64,1.34,5.2,5.2,0,0,1,2.18,3.48c.19,1.39-1,3-2.75,4.35a12.36,12.36,0,0,1-5.22,2.38,4.89,4.89,0,0,1-2.81-.37,1.2,1.2,0,0,1-.74-1.1,4.43,4.43,0,0,1,.84-1.91A9,9,0,0,0,3.85,7.7a2.81,2.81,0,0,0-.06-1.44c-.11-.46-.24-.93-.34-1.4-.21-1-.27-1.72.23-2.25a4,4,0,0,1,2.45-1C6.36,1.58,6.61,1.58,6.83,1.57ZM7.4,2.75a2.63,2.63,0,0,0-2.24.83c-.8.94.21,3.22,0,4s-1.46,2-1.45,2.91S4,12.07,6,11.89s6.18-2.68,5.86-5.13a4,4,0,0,0-1-2.24c-.22-.23-.72.15-1,.57L7.5,8.64a.53.53,0,1,1-.9-.57L9,4.49c.39-.59.36-1.22,0-1.41a2.53,2.53,0,0,0-.84-.27A5.19,5.19,0,0,0,7.4,2.75Z"></path></svg>