<svg xmlns="http://www.w3.org/2000/svg" viewBox="0 0 33 43" height="43" width="33"><title>new.svg</title><rect fill="none" x="0" y="0" width="33" height="43"></rect><path fill="#a38f1a" transform="translate(4 4)" d="M3.18412 3.91305C5.08634 1.86861 6.8819 0.837492 9.6019 0.197493C11.113 -0.158063 14.0463 -0.0158401 15.6463 0.481936C17.6552 1.10416 19.0419 1.97527 20.713 3.66416C23.1308 6.09971 24.1441 8.55305 24.1619 12.0375C24.1797 14.3308 23.9308 15.3797 22.8819 17.5308C22.1175 19.113 21.8863 19.3975 19.3797 21.8864C15.0597 26.1886 12.9263 29.8864 12.3041 34.1353C12.2697 34.3793 11.918 34.3783 11.8775 34.1353C11.1308 29.6553 9.1219 26.1886 4.81967 21.9042C1.88634 18.9886 1.22856 18.0108 0.428563 15.4153C-0.104771 13.7086 -0.140326 10.7575 0.321896 9.01527C0.837452 7.09527 1.79745 5.3886 3.18412 3.91305ZM12 17C15.3137 17 18 14.3137 18 11C18 7.68628 15.3137 4.99998 12 4.99998C8.68628 4.99998 5.99999 7.68628 5.99999 11C5.99999 14.3137 8.68628 17 12 17Z"></path></svg>