<svg xmlns="http://www.w3.org/2000/svg" viewBox="0 0 23 23" height="23" width="23"><title>veterinary_15.svg</title><rect fill="none" x="0" y="0" width="23" height="23"></rect><rect x="1" y="1" rx="10.5" ry="10.5" width="21" height="21" stroke="#ffffff" style="stroke-linejoin:round;stroke-miterlimit:4;" fill="#ffffff" stroke-width="2"></rect><rect x="1" y="1" width="21" height="21" rx="10.5" ry="10.5" fill="#ff7d7f"></rect><path fill="#fff" transform="translate(4 4)" d="M5.29.13C3.77.13,3.53,2.2,3.92,3.25a1.52,1.52,0,0,0,1.78,1,2.34,2.34,0,0,0,1-2.75C6.56.89,6,.13,5.29.13Zm4.25,0c-.74,0-1.27.76-1.4,1.41a2.34,2.34,0,0,0,1,2.75,1.53,1.53,0,0,0,1.78-1C11.31,2.2,11.07.13,9.54.13ZM.94,3.45A2.24,2.24,0,0,0,1.51,6.5a1.24,1.24,0,0,0,1.67-.68,2.05,2.05,0,0,0-.43-2.5A1.24,1.24,0,0,0,.94,3.45Zm11.31-.13a2.31,2.31,0,0,0-.43,2.5,1.28,1.28,0,0,0,1.71.68,2.22,2.22,0,0,0,.53-3A1.51,1.51,0,0,0,12.25,3.32ZM7.5,4.82a4.82,4.82,0,1,0,4.82,4.82A4.82,4.82,0,0,0,7.5,4.82ZM6.43,6.43H8.57V8.57h2.14v2.14l-2.14,0v2.11H6.43V10.71H4.29V8.57H6.43Z"></path></svg>