<svg xmlns="http://www.w3.org/2000/svg" viewBox="0 0 51 67" height="67" width="51"><title>atm.svg</title><rect fill="none" x="0" y="0" width="51" height="67"></rect><path fill="#4747a1" transform="translate(2 2)" d="M26.4008 61.5844C32.6797 53.6643 47 34.4685 47 23.6863C47 10.6095 36.474 0 23.5 0C10.526 0 0 10.6095 0 23.6863C0 34.4685 14.3203 53.6643 20.5992 61.5844C22.1047 63.4719 24.8953 63.4719 26.4008 61.5844ZM10 11.25C10 10.0078 11.0078 9 12.2547 9H34.7453C35.9922 9 37 10.0078 37 11.25V27.75C37 28.9922 35.9922 30 34.7453 30H12.2547C11.0078 30 10 28.9922 10 27.75V11.25ZM34.7453 11.5312C34.7453 11.3766 34.6188 11.25 34.4641 11.25H12.5359C12.3813 11.25 12.2547 11.3766 12.2547 11.5312V13.5H34.7453V11.5312ZM12.2547 27.4688C12.2547 27.6234 12.3813 27.75 12.5359 27.75H34.4641C34.6188 27.75 34.7453 27.6234 34.7453 27.4688V19.5H12.2547V27.4688ZM19 24.9375V23.0625C19 22.7531 18.7469 22.5 18.4375 22.5H15.0625C14.7531 22.5 14.5 22.7531 14.5 23.0625V24.9375C14.5 25.2469 14.7531 25.5 15.0625 25.5H18.4375C18.7469 25.5 19 25.2469 19 24.9375ZM28 24.9375V23.0625C28 22.7531 27.7469 22.5 27.4375 22.5H21.0625C20.7531 22.5 20.5 22.7531 20.5 23.0625V24.9375C20.5 25.2469 20.7531 25.5 21.0625 25.5H27.4375C27.7469 25.5 28 25.2469 28 24.9375Z"></path></svg>