<svg xmlns="http://www.w3.org/2000/svg" viewBox="0 0 51 67" height="67" width="51"><title>bakery.svg</title><rect fill="none" x="0" y="0" width="51" height="67"></rect><path fill="#4747a1" transform="translate(2 2)" d="M26.4008 61.5844C32.6797 53.6643 47 34.4685 47 23.6863C47 10.6095 36.474 0 23.5 0C10.526 0 0 10.6095 0 23.6863C0 34.4685 14.3203 53.6643 20.5992 61.5844C22.1047 63.4719 24.8953 63.4719 26.4008 61.5844ZM30.901 19.7755C30.901 19.7755 32.5703 16.0851 32.3501 10.8211C38.5492 13.6448 42.9594 25.3308 36.6962 29.4894C30.4336 33.646 16.4363 32.4779 12.0922 30.1073C7.48772 27.5901 5.00729 19.1384 14.4239 13.0036C14.4239 13.0036 16.0661 15.5987 16.5546 19.999C16.5546 19.999 17.2699 14.6177 16.3741 12.1692C16.3741 12.1692 18.0732 11.6383 19.1395 11.7445C19.1395 11.7445 20.3956 16.3572 20.0875 19.9535C20.0875 19.9535 21.9478 16.1579 21.4956 10.9991C21.4956 10.9991 23.5774 10.6563 25.0299 11.2166C25.0299 11.2166 25.8747 14.8857 25.3439 19.735C26.4175 18.3293 27.8712 14.5105 27.6597 10.1375C27.6597 10.1375 29.126 9.84214 30.0436 10.1172C30.0436 10.1172 31.1179 15.721 30.901 19.7755Z"></path></svg>