<svg xmlns="http://www.w3.org/2000/svg" viewBox="0 0 51 67" height="67" width="51"><title>clinic.svg</title><rect fill="none" x="0" y="0" width="51" height="67"></rect><path fill="#4747a1" transform="translate(2 2)" d="M26.4008 61.5844C32.6797 53.6643 47 34.4685 47 23.6863C47 10.6095 36.474 0 23.5 0C10.526 0 0 10.6095 0 23.6863C0 34.4685 14.3203 53.6643 20.5992 61.5844C22.1047 63.4719 24.8953 63.4719 26.4008 61.5844ZM34.8046 17.0068L37.1781 31.0408C37.5172 33.1354 36.1609 35.23 34.1264 35.23H12.9342C11.0693 35.23 9.71304 33.1354 10.0521 31.0408L12.4256 17.0068C12.7647 15.5406 13.9515 14.2838 15.3078 14.2838H18.529V11.7703C18.529 9.67569 19.8853 8 21.5807 8H25.6495C27.3449 8 28.7012 9.67569 28.7012 11.7703V14.2838H31.9224C33.2787 14.2838 34.4655 15.5406 34.8046 17.0068ZM21.5807 10.0946C20.9025 10.0946 20.2244 10.9325 20.2244 11.7703V14.2838H27.0058V11.7703C27.0058 10.9325 26.3277 10.0946 25.6495 10.0946H21.5807ZM25.3105 26.8515H28.7012V22.6623H25.3105V18.4731H21.9197V22.6623H18.529V26.8515H21.9197V31.0408H25.3105V26.8515Z"></path></svg>