<svg xmlns="http://www.w3.org/2000/svg" viewBox="0 0 51 67" height="67" width="51"><title>kindergarten.svg</title><rect fill="none" x="0" y="0" width="51" height="67"></rect><path fill="#6b5221" transform="translate(2 2)" d="M26.4008 61.5844C32.6797 53.6643 47 34.4685 47 23.6863C47 10.6095 36.474 0 23.5 0C10.526 0 0 10.6095 0 23.6863C0 34.4685 14.3203 53.6643 20.5992 61.5844C22.1047 63.4719 24.8953 63.4719 26.4008 61.5844ZM20.2958 10.6347C20.2958 12.2484 19.3017 13.5565 18.0754 13.5565C16.8491 13.5565 15.855 12.2484 15.855 10.6347C15.855 9.02108 16.8491 7.71298 18.0754 7.71298C19.3017 7.71298 20.2958 9.02108 20.2958 10.6347ZM15.6976 15.3662C15.874 15.0179 16.1711 14.8086 16.4894 14.8086H19.6614C19.9795 14.8086 20.2766 15.0179 20.4531 15.3662L22.9907 20.3749C23.2823 20.9503 23.1641 21.7277 22.7268 22.1114C22.2895 22.495 21.6987 22.3395 21.4072 21.7641L20.613 20.1965V27.7478C20.613 28.4393 20.1869 28.9999 19.6614 28.9999C19.1358 28.9999 18.7098 28.4393 18.7098 27.7478V23.5738H17.441V27.7478C17.441 28.4393 17.0149 28.9999 16.4894 28.9999C15.9638 28.9999 15.5377 28.4393 15.5377 27.7478V20.1965L14.7435 21.7641C14.452 22.3395 13.8611 22.495 13.4239 22.1114C12.9866 21.7277 12.8684 20.9503 13.1599 20.3749L15.6976 15.3662ZM31.6287 5.03331C31.8159 4.92636 32.0319 5.08999 32.0319 5.3385V7.16584C32.0319 7.41444 31.8159 7.57789 31.6287 7.47112L29.4943 6.25217L31.6287 5.03331ZM29.4943 6.25217L27.3598 7.47112C27.1728 7.57789 26.9567 7.41444 26.9567 7.16584V5.3385C26.9567 5.08999 27.1728 4.92636 27.3598 5.03331L29.4943 6.25217ZM31.7147 10.6348C31.7147 12.2484 30.7206 13.5565 29.4943 13.5565C28.268 13.5565 27.2739 12.2484 27.2739 10.6348C27.2739 9.02115 28.268 7.71304 29.4943 7.71304C30.7206 7.71304 31.7147 9.02115 31.7147 10.6348ZM27.1165 15.3662C27.293 15.018 27.5901 14.8087 27.9083 14.8087H31.0803C31.3985 14.8087 31.6956 15.018 31.8721 15.3662L34.4097 20.3749C34.7013 20.9504 34.5831 21.7278 34.1458 22.1115C33.7085 22.495 33.1177 22.3395 32.8261 21.7642L32.0319 20.1965V21.6957L33.3007 25.0348H32.0319V27.7478C32.0319 28.4394 31.6059 29 31.0803 29C30.5547 29 30.1287 28.4394 30.1287 27.7478V25.0348H28.8599V27.7478C28.8599 28.4394 28.4338 29 27.9083 29C27.3827 29 26.9567 28.4394 26.9567 27.7478V25.0348H25.6879L26.9567 21.6957V20.1965L26.1624 21.7642C25.8709 22.3395 25.2801 22.495 24.8428 22.1115C24.4055 21.7278 24.2874 20.9504 24.5789 20.3749L27.1165 15.3662Z"></path></svg>