<svg xmlns="http://www.w3.org/2000/svg" viewBox="0 0 51 67" height="67" width="51"><title>temple.svg</title><rect fill="none" x="0" y="0" width="51" height="67"></rect><path fill="#5c2335" transform="translate(2 2)" d="M47 23.6863C47 34.4685 32.6797 53.6643 26.4008 61.5844C24.8953 63.4719 22.1047 63.4719 20.5992 61.5844C14.3203 53.6643 0 34.4685 0 23.6863C0 10.6095 10.526 0 23.5 0C36.474 0 47 10.6095 47 23.6863ZM23.5396 6.03241C23.5126 6.05942 23.4923 6.22824 23.4923 6.40381V6.72794L23.1412 6.7482C22.8238 6.76846 22.7833 6.78872 22.763 6.92377C22.7293 7.16012 22.8643 7.27492 23.1952 7.27492C23.4451 7.27492 23.4923 7.29518 23.4923 7.40322C23.4923 7.4775 23.5531 7.55854 23.6274 7.57879C23.83 7.63957 24.0326 7.55178 24.0326 7.40322C24.0326 7.29518 24.0798 7.27492 24.3297 7.27492C24.6606 7.27492 24.7956 7.16012 24.7619 6.92377C24.7416 6.78872 24.7011 6.76846 24.3905 6.7482L24.0393 6.72794L24.0191 6.3768C23.9988 6.03916 23.992 6.02565 23.7962 6.0054C23.6814 5.99189 23.5666 6.0054 23.5396 6.03241ZM22.8179 9.34791C22.8179 9.26012 22.8382 9.16558 22.8652 9.13857C22.8922 9.11831 23.3109 9.10481 23.7903 9.11156L24.6749 9.13182L24.6952 9.31414L24.7155 9.50322H23.7701H22.8179V9.34791ZM20.1022 10.8134C18.9948 11.2591 18.0899 11.6507 18.0899 11.6777C18.0899 11.7115 20.6425 11.7318 23.7622 11.7318C26.882 11.7318 29.4346 11.7115 29.4346 11.6777C29.4346 11.6507 28.5162 11.2591 27.3885 10.7999L25.3424 9.97604L23.7285 9.98279L22.1078 9.98954L20.1022 10.8134ZM17.6045 12.3596C17.537 12.2988 17.483 12.2245 17.483 12.1908C17.483 12.1638 20.3124 12.1368 23.763 12.1368C27.2205 12.1368 30.0431 12.157 30.0431 12.184C30.0431 12.2043 29.9959 12.2853 29.9283 12.3528C29.827 12.4676 29.5434 12.4744 23.7765 12.4744C18.246 12.4744 17.7193 12.4676 17.6045 12.3596ZM18.9006 12.981C18.9006 13.0283 20.6766 14.4328 20.7373 14.4328C20.7711 14.4328 20.7914 14.3518 20.7914 14.2438C20.7846 14.0952 20.6698 13.9737 20.0756 13.5212C19.5624 13.1296 19.3058 12.9742 19.1369 12.9607C19.0086 12.9472 18.9006 12.954 18.9006 12.981ZM21.2642 14.7706V13.8589V12.9473H21.4668H21.6693V13.8589V14.7706H21.4668H21.2642ZM22.074 13.8589V14.7706H22.4454H22.8168V13.8589V12.9473H22.4454H22.074V13.8589ZM23.2896 14.7706V13.8589V12.9473H23.7623H24.235V13.8589V14.7706H23.7623H23.2896ZM24.7081 13.8589V14.7706H25.0795H25.4509V13.8589V12.9473H25.0795H24.7081V13.8589ZM25.8561 14.7706V13.8589V12.9473H26.0587H26.2613V13.8589V14.7706H26.0587H25.8561ZM27.4628 13.5077C26.8551 13.9737 26.7403 14.0952 26.7335 14.2438C26.7335 14.3518 26.7606 14.4328 26.7876 14.4328C26.8551 14.4328 28.6243 13.0283 28.6243 12.981C28.6243 12.9607 28.523 12.9472 28.4082 12.954C28.2394 12.954 28.0166 13.0823 27.4628 13.5077ZM20.6297 15.9523C20.3664 15.7429 20.3191 15.6754 20.3191 15.4796V15.2432H23.763H27.2069V15.4796C27.2069 15.6754 27.1596 15.7429 26.8963 15.9523L26.5789 16.1886H23.763H20.9471L20.6297 15.9523ZM21.1298 16.8637V17.0663H23.7634H26.3969V16.8637V16.6611H23.7634H21.1298V16.8637ZM12.8437 22.4213C12.9382 22.1782 13.1475 22.0499 16.9156 19.8552L20.893 17.539H21.2981C21.5277 17.539 21.6695 17.566 21.6358 17.5998C21.4872 17.7348 12.8031 22.7454 12.7761 22.7116C12.7559 22.6914 12.7829 22.5631 12.8437 22.4213ZM17.8673 20.2942L13.1538 23.0426L18.4548 23.0629C21.3787 23.0696 26.153 23.0696 29.0702 23.0629L34.3778 23.0426L29.6441 20.2875L24.9172 17.5391H23.749L22.5807 17.5459L17.8673 20.2942ZM34.7499 22.7117C34.7229 22.7387 26.0455 17.7349 25.897 17.5999C25.8565 17.5661 26.005 17.5391 26.2346 17.5391H26.633L30.6104 19.8553C34.3852 22.0499 34.5878 22.1782 34.6823 22.4213C34.7431 22.5631 34.7701 22.6915 34.7499 22.7117ZM12.6205 23.5828C12.6205 23.5963 12.6543 23.6908 12.7016 23.7854L12.7758 23.9542H23.7626H34.7494L34.8237 23.7854C34.8709 23.6908 34.9047 23.5963 34.9047 23.5828C34.9047 23.5625 29.8941 23.549 23.7626 23.549C17.6378 23.549 12.6205 23.5625 12.6205 23.5828ZM16.335 25.4533C15.9096 24.9536 15.5517 24.5147 15.5381 24.4809C15.5246 24.4539 15.6462 24.4269 15.8083 24.4269C16.1054 24.4269 16.1121 24.4269 16.8144 25.2507C17.1993 25.7031 17.5707 26.1421 17.6383 26.2299L17.7598 26.3852L17.4357 26.3784L17.1115 26.3717L16.335 25.4533ZM18.4957 25.406V26.3852H18.732H18.9684V25.406V24.4269H18.732H18.4957V25.406ZM19.4408 26.3852V25.406V24.4269H20.4537H21.4666V25.406V26.3852H20.4537H19.4408ZM21.9396 25.406V26.3852H22.176H22.4123V25.406V24.4269H22.176H21.9396V25.406ZM22.8847 26.3852V25.406V24.4269H23.7626H24.6404V25.406V26.3852H23.7626H22.8847ZM25.1139 25.406V26.3852H25.3502H25.5866V25.406V24.4269H25.3502H25.1139V25.406ZM26.0581 26.3852V25.406V24.4269H27.071H28.084V25.406V26.3852H27.071H26.0581ZM28.557 25.406V26.3852H28.7933H29.0297V25.406V24.4269H28.7933H28.557V25.406ZM29.8873 26.2299C29.9548 26.1421 30.3262 25.7031 30.7111 25.2507C31.4134 24.4269 31.4202 24.4269 31.7173 24.4269C31.8793 24.4269 32.0009 24.4539 31.9874 24.4809C31.9806 24.5147 31.616 24.9536 31.1906 25.4533L30.414 26.3717L30.0899 26.3784L29.7657 26.3852L29.8873 26.2299ZM17.2801 27.0605V27.2631H23.7627H30.2454V27.0605V26.8579H23.7627H17.2801V27.0605ZM17.2801 29.8965V28.8161V27.7356H19.2721H21.2642V28.8161V29.8965H19.2721H17.2801ZM21.7369 28.9716C21.7369 29.8427 21.7099 30.2344 21.6559 30.2884C21.5951 30.3492 21.0076 30.3694 19.4274 30.3694H17.2801V30.7071V31.0447H20.0149H22.7498L22.7633 29.6401L22.7836 28.2423H23.7627H24.7419L24.7621 29.6401L24.7757 31.0447H27.5105H30.2454V30.7071V30.3694H28.098C26.5179 30.3694 25.9304 30.3492 25.8696 30.2884C25.8156 30.2344 25.7886 29.8427 25.7886 28.9716V27.7359H23.7627H21.7369V28.9716ZM26.261 29.8965V28.8161V27.7356H28.2531H30.2451V28.8161V29.8965H28.2531H26.261ZM23.1552 29.7954V30.9771H23.763H24.3707V29.7954V28.6136H23.763H23.1552V29.7954ZM15.1185 31.9226V31.72V31.5174H18.5152H21.9186L21.8848 31.72L21.8578 31.9226H18.4881H15.1185ZM22.345 31.5984C22.345 31.6457 22.3247 31.801 22.3045 31.9361L22.2572 32.1927H23.7631H25.2689L25.2217 31.9361C25.2014 31.801 25.1812 31.6457 25.1812 31.5984C25.1812 31.5377 24.8503 31.5174 23.7631 31.5174C22.6759 31.5174 22.345 31.5377 22.345 31.5984ZM25.6669 31.9226L25.6399 31.72L25.6061 31.5174H29.0095H32.4062V31.72V31.9226H29.0365H25.6669ZM15.1185 33.2394V34.0835H18.2923C20.0413 34.0835 21.4661 34.0768 21.4661 34.0633C21.4661 34.0498 21.5269 33.7121 21.6012 33.3069C21.6755 32.9018 21.7362 32.5304 21.7362 32.4831C21.7362 32.4088 21.1082 32.3953 18.4274 32.3953H15.1185V33.2394ZM25.9235 33.3069C25.8492 32.9018 25.7885 32.5304 25.7885 32.4831C25.7885 32.4088 26.4165 32.3953 29.0973 32.3953H32.4062V33.2394V34.0835H29.2324C27.4902 34.0835 26.0586 34.0768 26.0586 34.0633C26.0586 34.0498 25.9978 33.7121 25.9235 33.3069ZM22.1153 32.9353C22.0883 33.1244 22.0545 33.3202 22.0343 33.3742C22.0005 33.462 22.2234 33.4755 23.763 33.4755C25.3026 33.4755 25.5255 33.462 25.4917 33.3742C25.4714 33.3202 25.4377 33.1244 25.4107 32.9353L25.3634 32.5976H23.763H22.1626L22.1153 32.9353ZM21.872 34.3333C21.872 34.2523 21.8922 34.1172 21.9125 34.0295L21.953 33.8809H23.7628H25.5725L25.613 34.0295C25.6333 34.1172 25.6535 34.2523 25.6535 34.3333V34.4887H23.7628H21.872V34.3333ZM11 34.7925V35.0288H16.1591H21.3182L21.3453 34.7925L21.3723 34.5561H16.1861H11V34.7925ZM26.2341 34.9951L26.1868 34.7722L26.1463 34.5561H31.3324H36.5253V34.7925V35.0288L31.3797 35.0153L26.2341 34.9951ZM21.7029 35.2447C21.6826 35.4068 21.6421 35.5891 21.6286 35.6499C21.5948 35.7647 21.7299 35.7715 23.7625 35.7715C25.7951 35.7715 25.9301 35.7647 25.8964 35.6499C25.8829 35.5891 25.8423 35.4068 25.8221 35.2447L25.7748 34.9611H23.7625H21.7501L21.7029 35.2447ZM11 36.852V36.1767V35.5015H16.1051H21.217L21.1697 35.7176C21.1427 35.8391 21.0887 36.143 21.0481 36.3928L20.9739 36.852H15.9903H11ZM26.3555 35.7176C26.3825 35.8391 26.4365 36.143 26.477 36.3928L26.5513 36.852H31.5348H36.5251V36.1767V35.5015H31.42H26.3149L26.3555 35.7176ZM21.4399 36.6629C21.4602 36.5617 21.494 36.4266 21.5142 36.3591C21.5412 36.251 21.7033 36.2443 23.7629 36.2443H25.9913L26.0318 36.4266C26.0521 36.5346 26.0859 36.6697 26.1061 36.7305C26.1331 36.8453 25.9913 36.852 23.7629 36.852H21.3994L21.4399 36.6629ZM11 37.6624V38H23.7628H36.5255V37.6624V37.3247H23.7628H11V37.6624ZM22.938 8.81094H24.5543C24.591 8.81094 24.6152 8.77379 24.5987 8.74102C24.4929 8.53174 24.1513 7.92464 23.7462 7.92464C23.3411 7.92464 22.9994 8.53174 22.8937 8.74102C22.8771 8.77379 22.9013 8.81094 22.938 8.81094Z"></path></svg>